PathFileType	4	(X/Y/Z)	SUBJ63_0_static_RCNL2025.trc
DataRate	CameraRate	NumFrames	NumMarkers	Units	OrigDataRate	OrigDataStartFrame	OrigNumFrames
100	100	5	25	mm	100	44	116
Frame#	Time	R_Shoulder			L_Shoulder			C7			J_Notch			R_Elbow			L_Elbow			R_Wrist			L_Wrist			R_Asis			L_Asis			Sacral			Thoracic			Sternum			R_Thigh_Lateral			R_Knee_Lateral			R_Shank_Lateral			R_Ankle_Lateral			R_Heel			R_Toe			L_Thigh_Lateral			L_Knee_Lateral			L_Shank_Lateral			L_Ankle_Lateral			L_Heel			L_Toe		
		X1	Y1	Z1	X2	Y2	Z2	X3	Y3	Z3	X4	Y4	Z4	X5	Y5	Z5	X6	Y6	Z6	X7	Y7	Z7	X8	Y8	Z8	X9	Y9	Z9	X10	Y10	Z10	X11	Y11	Z11	X12	Y12	Z12	X13	Y13	Z13	X14	Y14	Z14	X15	Y15	Z15	X16	Y16	Z16	X17	Y17	Z17	X18	Y18	Z18	X19	Y19	Z19	X20	Y20	Z20	X21	Y21	Z21	X22	Y22	Z22	X23	Y23	Z23	X24	Y24	Z24	X25	Y25	Z25
44	0.43000000	-333.779022	1297.076538	-44.377445	-328.774353	1300.297607	-385.117035	-417.013947	1362.577759	-219.146591	-295.202057	1261.089966	-217.273392	-361.340698	1002.033447	31.054102	-348.469452	1001.274048	-473.601013	-289.842514	786.302887	63.033195	-280.743942	788.479309	-498.595718	-255.037766	847.444092	-89.540382	-240.583221	843.441956	-341.881866	-473.537903	866.517334	-230.978424	-484.853455	1170.812134	-218.856750	-230.354614	1088.255371	-216.509094	-357.072083	508.774475	-43.417667	-367.315765	452.407349	-92.230209	-399.807800	272.396271	-47.383518	-411.105438	61.354984	-127.619881	-453.404785	58.643566	-179.136017	-293.933014	47.089825	-130.849731	-340.622955	473.868866	-425.268341	-348.425232	448.346893	-357.007660	-367.743622	258.434814	-396.743591	-389.089630	60.596550	-323.098907	-441.268677	53.124722	-275.801422	-269.664337	44.136059	-305.303406
45	0.44000000	-333.838959	1297.096680	-44.322674	-328.782196	1300.353027	-385.138184	-417.076935	1362.593506	-219.104797	-295.236664	1261.185181	-217.187149	-361.304810	1002.113708	31.166397	-348.470398	1001.279419	-473.611572	-289.837540	786.280884	63.037399	-280.707520	788.521698	-498.663803	-255.065323	847.448914	-89.488686	-240.649887	843.447388	-341.767761	-473.607727	866.538452	-230.931061	-484.855011	1170.813110	-218.856445	-230.436447	1088.325073	-216.462646	-357.055206	508.754364	-43.423149	-367.259491	452.428497	-92.164909	-399.874268	272.491577	-47.306496	-411.124786	61.383804	-127.586601	-453.337555	58.636761	-179.058121	-293.886292	47.109215	-130.804596	-340.663330	473.909637	-425.230469	-348.483856	448.354736	-357.033051	-367.658630	258.460815	-396.728180	-389.140137	60.664822	-323.073639	-441.292084	53.107784	-275.791290	-269.591461	44.143375	-305.173584
46	0.45000000	-333.871613	1297.111328	-44.294979	-328.929932	1300.398560	-385.112579	-417.157837	1362.604004	-219.052124	-295.225922	1261.200439	-217.205093	-361.156006	1002.150146	31.196136	-348.520050	1001.311951	-473.625244	-289.959137	786.330933	63.104034	-280.710114	788.634918	-498.732925	-255.080231	847.444519	-89.525963	-240.645065	843.503845	-341.763580	-473.614868	866.541687	-230.926285	-485.063812	1170.815430	-218.778076	-230.410492	1088.342529	-216.509903	-357.119202	508.717529	-43.364803	-367.320740	452.426483	-92.219978	-399.796906	272.392517	-47.407051	-411.051086	61.356274	-127.640205	-453.402344	58.657253	-179.125397	-293.978943	47.124096	-130.808365	-340.644531	473.907379	-425.281281	-348.486694	448.366882	-357.062469	-367.754395	258.575531	-396.799133	-389.104401	60.704075	-323.085022	-441.428101	53.184017	-275.771729	-269.595062	44.157497	-305.287170
47	0.46000000	-333.929779	1297.109741	-44.341927	-328.978027	1300.406128	-385.069244	-417.258881	1362.595703	-219.074310	-295.334320	1261.183350	-217.253983	-361.009247	1002.165161	31.261766	-348.529144	1001.375366	-473.596466	-289.980484	786.397797	63.107943	-280.764282	788.666229	-498.752029	-255.237091	847.428711	-89.445129	-240.608246	843.523071	-341.812012	-473.698792	866.488403	-230.858856	-485.066071	1170.839844	-218.788147	-230.467468	1088.400391	-216.369415	-357.201355	508.759827	-43.313995	-367.365204	452.373718	-92.215050	-399.865753	272.444366	-47.321121	-411.114044	61.397629	-127.585541	-453.450500	58.728611	-179.090622	-293.947021	47.107452	-130.848724	-340.718170	473.896515	-425.240875	-348.485229	448.364349	-357.049438	-367.858582	258.521576	-396.719910	-389.053802	60.657394	-323.100525	-441.264130	53.343834	-275.906250	-269.590851	44.161976	-305.291046
48	0.47000000	-334.034973	1297.137085	-44.297157	-329.062714	1300.422607	-385.054993	-417.346497	1362.539917	-219.009033	-295.457520	1261.198730	-217.127396	-361.001190	1002.194031	31.447849	-348.756439	1001.407227	-473.871857	-289.993790	786.400391	63.141562	-280.880859	788.639862	-498.782639	-255.313721	847.444458	-89.437012	-240.671265	843.544373	-341.682983	-473.769379	866.488770	-230.925217	-485.185150	1170.842285	-218.812958	-230.602646	1088.395020	-216.354401	-357.203369	508.752747	-43.333050	-367.405273	452.376129	-92.175011	-399.916077	272.493713	-47.266609	-411.121429	61.376945	-127.573174	-453.418152	58.670067	-179.125519	-293.980530	47.122520	-130.812485	-340.746429	473.908203	-425.198669	-348.490387	448.359009	-356.944489	-367.777557	258.561218	-396.771362	-389.072632	60.606033	-323.101227	-441.226501	53.293907	-275.944214	-269.664612	44.121708	-305.258392
